<svg width="81" height="35" viewBox="0 0 81 35" fill="none" xmlns="http://www.w3.org/2000/svg">
<path d="M3.278 10.577C2.772 10.577 2.31733 10.489 1.914 10.313C1.518 10.1297 1.20633 9.88033 0.979 9.565C0.751667 9.24233 0.634333 8.872 0.627 8.454H1.694C1.73067 8.81333 1.87733 9.11767 2.134 9.367C2.398 9.609 2.77933 9.73 3.278 9.73C3.75467 9.73 4.12867 9.61267 4.4 9.378C4.67867 9.136 4.818 8.828 4.818 8.454C4.818 8.16067 4.73733 7.92233 4.576 7.739C4.41467 7.55567 4.213 7.41633 3.971 7.321C3.729 7.22567 3.40267 7.123 2.992 7.013C2.486 6.881 2.079 6.749 1.771 6.617C1.47033 6.485 1.21 6.27967 0.99 6.001C0.777333 5.715 0.671 5.33367 0.671 4.857C0.671 4.439 0.777333 4.06867 0.99 3.746C1.20267 3.42333 1.49967 3.174 1.881 2.998C2.26967 2.822 2.71333 2.734 3.212 2.734C3.93067 2.734 4.51733 2.91367 4.972 3.273C5.434 3.63233 5.69433 4.109 5.753 4.703H4.653C4.61633 4.40967 4.46233 4.153 4.191 3.933C3.91967 3.70567 3.56033 3.592 3.113 3.592C2.695 3.592 2.354 3.702 2.09 3.922C1.826 4.13467 1.694 4.43533 1.694 4.824C1.694 5.10267 1.771 5.33 1.925 5.506C2.08633 5.682 2.28067 5.81767 2.508 5.913C2.74267 6.001 3.069 6.10367 3.487 6.221C3.993 6.36033 4.4 6.49967 4.708 6.639C5.016 6.771 5.28 6.98 5.5 7.266C5.72 7.54467 5.83 7.926 5.83 8.41C5.83 8.784 5.731 9.136 5.533 9.466C5.335 9.796 5.04167 10.0637 4.653 10.269C4.26433 10.4743 3.806 10.577 3.278 10.577ZM10.2951 4.362C10.7497 4.362 11.1604 4.461 11.5271 4.659C11.8937 4.84967 12.1797 5.13933 12.3851 5.528C12.5977 5.91667 12.7041 6.38967 12.7041 6.947V10.5H11.7141V7.09C11.7141 6.48867 11.5637 6.03033 11.2631 5.715C10.9624 5.39233 10.5517 5.231 10.0311 5.231C9.50305 5.231 9.08139 5.396 8.76605 5.726C8.45805 6.056 8.30405 6.53633 8.30405 7.167V10.5H7.30305V2.36H8.30405V5.33C8.50205 5.022 8.77339 4.78367 9.11805 4.615C9.47005 4.44633 9.86239 4.362 10.2951 4.362ZM16.9682 10.599C16.4035 10.599 15.8902 10.4707 15.4282 10.214C14.9735 9.95733 14.6142 9.59433 14.3502 9.125C14.0935 8.64833 13.9652 8.09833 13.9652 7.475C13.9652 6.859 14.0972 6.31633 14.3612 5.847C14.6325 5.37033 14.9992 5.00733 15.4612 4.758C15.9232 4.50133 16.4402 4.373 17.0122 4.373C17.5842 4.373 18.1012 4.50133 18.5632 4.758C19.0252 5.00733 19.3882 5.36667 19.6522 5.836C19.9235 6.30533 20.0592 6.85167 20.0592 7.475C20.0592 8.09833 19.9199 8.64833 19.6412 9.125C19.3699 9.59433 18.9995 9.95733 18.5302 10.214C18.0609 10.4707 17.5402 10.599 16.9682 10.599ZM16.9682 9.719C17.3275 9.719 17.6649 9.63467 17.9802 9.466C18.2955 9.29733 18.5485 9.04433 18.7392 8.707C18.9372 8.36967 19.0362 7.959 19.0362 7.475C19.0362 6.991 18.9409 6.58033 18.7502 6.243C18.5595 5.90567 18.3102 5.65633 18.0022 5.495C17.6942 5.32633 17.3605 5.242 17.0012 5.242C16.6345 5.242 16.2972 5.32633 15.9892 5.495C15.6885 5.65633 15.4465 5.90567 15.2632 6.243C15.0799 6.58033 14.9882 6.991 14.9882 7.475C14.9882 7.96633 15.0762 8.38067 15.2522 8.718C15.4355 9.05533 15.6775 9.30833 15.9782 9.477C16.2789 9.63833 16.6089 9.719 16.9682 9.719ZM22.3763 5.583C22.5743 5.23833 22.8677 4.95233 23.2563 4.725C23.6523 4.49033 24.1107 4.373 24.6313 4.373C25.1667 4.373 25.6507 4.50133 26.0833 4.758C26.5233 5.01467 26.868 5.37767 27.1173 5.847C27.3667 6.309 27.4913 6.848 27.4913 7.464C27.4913 8.07267 27.3667 8.61533 27.1173 9.092C26.868 9.56867 26.5233 9.939 26.0833 10.203C25.6507 10.467 25.1667 10.599 24.6313 10.599C24.118 10.599 23.6633 10.4853 23.2673 10.258C22.8787 10.0233 22.5817 9.73367 22.3763 9.389V13.36H21.3753V4.472H22.3763V5.583ZM26.4683 7.464C26.4683 7.00933 26.3767 6.61333 26.1933 6.276C26.01 5.93867 25.7607 5.682 25.4453 5.506C25.1373 5.33 24.7963 5.242 24.4223 5.242C24.0557 5.242 23.7147 5.33367 23.3993 5.517C23.0913 5.693 22.842 5.95333 22.6513 6.298C22.468 6.63533 22.3763 7.02767 22.3763 7.475C22.3763 7.92967 22.468 8.32933 22.6513 8.674C22.842 9.01133 23.0913 9.27167 23.3993 9.455C23.7147 9.631 24.0557 9.719 24.4223 9.719C24.7963 9.719 25.1373 9.631 25.4453 9.455C25.7607 9.27167 26.01 9.01133 26.1933 8.674C26.3767 8.32933 26.4683 7.926 26.4683 7.464ZM29.8099 5.583C30.0079 5.23833 30.3012 4.95233 30.6899 4.725C31.0859 4.49033 31.5442 4.373 32.0649 4.373C32.6002 4.373 33.0842 4.50133 33.5169 4.758C33.9569 5.01467 34.3016 5.37767 34.5509 5.847C34.8002 6.309 34.9249 6.848 34.9249 7.464C34.9249 8.07267 34.8002 8.61533 34.5509 9.092C34.3016 9.56867 33.9569 9.939 33.5169 10.203C33.0842 10.467 32.6002 10.599 32.0649 10.599C31.5516 10.599 31.0969 10.4853 30.7009 10.258C30.3122 10.0233 30.0152 9.73367 29.8099 9.389V13.36H28.8089V4.472H29.8099V5.583ZM33.9019 7.464C33.9019 7.00933 33.8102 6.61333 33.6269 6.276C33.4436 5.93867 33.1942 5.682 32.8789 5.506C32.5709 5.33 32.2299 5.242 31.8559 5.242C31.4892 5.242 31.1482 5.33367 30.8329 5.517C30.5249 5.693 30.2756 5.95333 30.0849 6.298C29.9016 6.63533 29.8099 7.02767 29.8099 7.475C29.8099 7.92967 29.9016 8.32933 30.0849 8.674C30.2756 9.01133 30.5249 9.27167 30.8329 9.455C31.1482 9.631 31.4892 9.719 31.8559 9.719C32.2299 9.719 32.5709 9.631 32.8789 9.455C33.1942 9.27167 33.4436 9.01133 33.6269 8.674C33.8102 8.32933 33.9019 7.926 33.9019 7.464ZM36.7595 3.493C36.5688 3.493 36.4075 3.427 36.2755 3.295C36.1435 3.163 36.0775 3.00167 36.0775 2.811C36.0775 2.62033 36.1435 2.459 36.2755 2.327C36.4075 2.195 36.5688 2.129 36.7595 2.129C36.9428 2.129 37.0968 2.195 37.2215 2.327C37.3535 2.459 37.4195 2.62033 37.4195 2.811C37.4195 3.00167 37.3535 3.163 37.2215 3.295C37.0968 3.427 36.9428 3.493 36.7595 3.493ZM37.2435 4.472V10.5H36.2425V4.472H37.2435ZM41.8865 4.362C42.6199 4.362 43.2139 4.58567 43.6685 5.033C44.1232 5.473 44.3505 6.111 44.3505 6.947V10.5H43.3605V7.09C43.3605 6.48867 43.2102 6.03033 42.9095 5.715C42.6089 5.39233 42.1982 5.231 41.6775 5.231C41.1495 5.231 40.7279 5.396 40.4125 5.726C40.1045 6.056 39.9505 6.53633 39.9505 7.167V10.5H38.9495V4.472H39.9505V5.33C40.1485 5.022 40.4162 4.78367 40.7535 4.615C41.0982 4.44633 41.4759 4.362 41.8865 4.362ZM48.4717 4.373C48.9923 4.373 49.447 4.48667 49.8357 4.714C50.2317 4.94133 50.525 5.22733 50.7157 5.572V4.472H51.7277V10.632C51.7277 11.182 51.6103 11.6697 51.3757 12.095C51.141 12.5277 50.8037 12.865 50.3637 13.107C49.931 13.349 49.425 13.47 48.8457 13.47C48.0537 13.47 47.3937 13.283 46.8657 12.909C46.3377 12.535 46.026 12.0253 45.9307 11.38H46.9207C47.0307 11.7467 47.258 12.04 47.6027 12.26C47.9473 12.4873 48.3617 12.601 48.8457 12.601C49.3957 12.601 49.843 12.4287 50.1877 12.084C50.5397 11.7393 50.7157 11.2553 50.7157 10.632V9.367C50.5177 9.719 50.2243 10.0123 49.8357 10.247C49.447 10.4817 48.9923 10.599 48.4717 10.599C47.9363 10.599 47.4487 10.467 47.0087 10.203C46.576 9.939 46.235 9.56867 45.9857 9.092C45.7363 8.61533 45.6117 8.07267 45.6117 7.464C45.6117 6.848 45.7363 6.309 45.9857 5.847C46.235 5.37767 46.576 5.01467 47.0087 4.758C47.4487 4.50133 47.9363 4.373 48.4717 4.373ZM50.7157 7.475C50.7157 7.02033 50.624 6.62433 50.4407 6.287C50.2573 5.94967 50.008 5.693 49.6927 5.517C49.3847 5.33367 49.0437 5.242 48.6697 5.242C48.2957 5.242 47.9547 5.33 47.6467 5.506C47.3387 5.682 47.093 5.93867 46.9097 6.276C46.7263 6.61333 46.6347 7.00933 46.6347 7.464C46.6347 7.926 46.7263 8.32933 46.9097 8.674C47.093 9.01133 47.3387 9.27167 47.6467 9.455C47.9547 9.631 48.2957 9.719 48.6697 9.719C49.0437 9.719 49.3847 9.631 49.6927 9.455C50.008 9.27167 50.2573 9.01133 50.4407 8.674C50.624 8.32933 50.7157 7.92967 50.7157 7.475ZM55.9779 7.475C55.9779 6.85167 56.1025 6.309 56.3519 5.847C56.6012 5.37767 56.9459 5.01467 57.3859 4.758C57.8332 4.50133 58.3429 4.373 58.9149 4.373C59.6555 4.373 60.2642 4.55267 60.7409 4.912C61.2249 5.27133 61.5439 5.77 61.6979 6.408H60.6199C60.5172 6.04133 60.3155 5.75167 60.0149 5.539C59.7215 5.32633 59.3549 5.22 58.9149 5.22C58.3429 5.22 57.8809 5.418 57.5289 5.814C57.1769 6.20267 57.0009 6.75633 57.0009 7.475C57.0009 8.201 57.1769 8.762 57.5289 9.158C57.8809 9.554 58.3429 9.752 58.9149 9.752C59.3549 9.752 59.7215 9.64933 60.0149 9.444C60.3082 9.23867 60.5099 8.94533 60.6199 8.564H61.6979C61.5365 9.18 61.2139 9.675 60.7299 10.049C60.2459 10.4157 59.6409 10.599 58.9149 10.599C58.3429 10.599 57.8332 10.4707 57.3859 10.214C56.9459 9.95733 56.6012 9.59433 56.3519 9.125C56.1025 8.65567 55.9779 8.10567 55.9779 7.475ZM62.6595 7.464C62.6595 6.848 62.7842 6.309 63.0335 5.847C63.2829 5.37767 63.6239 5.01467 64.0565 4.758C64.4965 4.50133 64.9842 4.373 65.5195 4.373C66.0475 4.373 66.5059 4.48667 66.8945 4.714C67.2832 4.94133 67.5729 5.22733 67.7635 5.572V4.472H68.7755V10.5H67.7635V9.378C67.5655 9.73 67.2685 10.0233 66.8725 10.258C66.4839 10.4853 66.0292 10.599 65.5085 10.599C64.9732 10.599 64.4892 10.467 64.0565 10.203C63.6239 9.939 63.2829 9.56867 63.0335 9.092C62.7842 8.61533 62.6595 8.07267 62.6595 7.464ZM67.7635 7.475C67.7635 7.02033 67.6719 6.62433 67.4885 6.287C67.3052 5.94967 67.0559 5.693 66.7405 5.517C66.4325 5.33367 66.0915 5.242 65.7175 5.242C65.3435 5.242 65.0025 5.33 64.6945 5.506C64.3865 5.682 64.1409 5.93867 63.9575 6.276C63.7742 6.61333 63.6825 7.00933 63.6825 7.464C63.6825 7.926 63.7742 8.32933 63.9575 8.674C64.1409 9.01133 64.3865 9.27167 64.6945 9.455C65.0025 9.631 65.3435 9.719 65.7175 9.719C66.0915 9.719 66.4325 9.631 66.7405 9.455C67.0559 9.27167 67.3052 9.01133 67.4885 8.674C67.6719 8.32933 67.7635 7.92967 67.7635 7.475ZM71.4681 5.451C71.6441 5.10633 71.8935 4.83867 72.2161 4.648C72.5461 4.45733 72.9458 4.362 73.4151 4.362V5.396H73.1511C72.0291 5.396 71.4681 6.00467 71.4681 7.222V10.5H70.4671V4.472H71.4681V5.451ZM75.7916 5.297V8.85C75.7916 9.14333 75.854 9.35233 75.9786 9.477C76.1033 9.59433 76.3196 9.653 76.6276 9.653H77.3646V10.5H76.4626C75.9053 10.5 75.4873 10.3717 75.2086 10.115C74.93 9.85833 74.7906 9.43667 74.7906 8.85V5.297H74.0096V4.472H74.7906V2.954H75.7916V4.472H77.3646V5.297H75.7916ZM78.8965 10.566C78.7058 10.566 78.5445 10.5 78.4125 10.368C78.2805 10.236 78.2145 10.0747 78.2145 9.884C78.2145 9.69333 78.2805 9.532 78.4125 9.4C78.5445 9.268 78.7058 9.202 78.8965 9.202C79.0798 9.202 79.2338 9.268 79.3585 9.4C79.4905 9.532 79.5565 9.69333 79.5565 9.884C79.5565 10.0747 79.4905 10.236 79.3585 10.368C79.2338 10.5 79.0798 10.566 78.8965 10.566ZM78.8965 5.858C78.7058 5.858 78.5445 5.792 78.4125 5.66C78.2805 5.528 78.2145 5.36667 78.2145 5.176C78.2145 4.98533 78.2805 4.824 78.4125 4.692C78.5445 4.56 78.7058 4.494 78.8965 4.494C79.0798 4.494 79.2338 4.56 79.3585 4.692C79.4905 4.824 79.5565 4.98533 79.5565 5.176C79.5565 5.36667 79.4905 5.528 79.3585 5.66C79.2338 5.792 79.0798 5.858 78.8965 5.858Z" fill="#4D4D4D"/>
<path d="M7.616 29.728C7.616 30.1947 7.49933 30.6333 7.266 31.044C7.042 31.4547 6.706 31.8 6.258 32.08C5.81933 32.36 5.29667 32.528 4.69 32.584V33.718H3.78V32.584C2.90267 32.5 2.19333 32.2247 1.652 31.758C1.11067 31.2913 0.84 30.6753 0.84 29.91H2.548C2.576 30.274 2.69267 30.5773 2.898 30.82C3.10333 31.0533 3.39733 31.2027 3.78 31.268V28.188C3.15467 28.0293 2.646 27.8707 2.254 27.712C1.862 27.544 1.526 27.2827 1.246 26.928C0.975333 26.5733 0.84 26.088 0.84 25.472C0.84 24.6973 1.11067 24.058 1.652 23.554C2.19333 23.0407 2.90267 22.742 3.78 22.658V21.524H4.69V22.658C5.51133 22.7327 6.16933 22.994 6.664 23.442C7.168 23.8807 7.45267 24.4873 7.518 25.262H5.81C5.782 24.9727 5.67 24.716 5.474 24.492C5.278 24.2587 5.01667 24.1 4.69 24.016V27.04C5.31533 27.1893 5.824 27.348 6.216 27.516C6.608 27.6747 6.93933 27.9313 7.21 28.286C7.48067 28.6313 7.616 29.112 7.616 29.728ZM2.464 25.388C2.464 25.7707 2.576 26.0693 2.8 26.284C3.03333 26.4987 3.36 26.6713 3.78 26.802V23.974C3.37867 24.0207 3.05667 24.1653 2.814 24.408C2.58067 24.6507 2.464 24.9773 2.464 25.388ZM4.69 31.268C5.10067 31.2027 5.42267 31.0393 5.656 30.778C5.88933 30.5073 6.006 30.1853 6.006 29.812C6.006 29.4387 5.88933 29.1493 5.656 28.944C5.432 28.7293 5.11 28.5567 4.69 28.426V31.268ZM16.5255 23.666H11.8355V26.452C12.0315 26.1907 12.3208 25.9713 12.7035 25.794C13.0955 25.6167 13.5108 25.528 13.9495 25.528C14.7335 25.528 15.3681 25.696 15.8535 26.032C16.3481 26.368 16.6981 26.7927 16.9035 27.306C17.1181 27.8193 17.2255 28.3607 17.2255 28.93C17.2255 29.6207 17.0901 30.2367 16.8195 30.778C16.5581 31.31 16.1615 31.73 15.6295 32.038C15.1068 32.346 14.4628 32.5 13.6975 32.5C12.6801 32.5 11.8635 32.248 11.2475 31.744C10.6315 31.24 10.2628 30.5727 10.1415 29.742H11.6955C11.7981 30.1807 12.0268 30.5307 12.3815 30.792C12.7361 31.044 13.1795 31.17 13.7115 31.17C14.3741 31.17 14.8688 30.9693 15.1955 30.568C15.5315 30.1667 15.6995 29.6347 15.6995 28.972C15.6995 28.3 15.5315 27.7867 15.1955 27.432C14.8595 27.068 14.3648 26.886 13.7115 26.886C13.2541 26.886 12.8668 27.0027 12.5495 27.236C12.2415 27.46 12.0175 27.768 11.8775 28.16H10.3655V22.266H16.5255V23.666ZM25.3549 23.526L21.4629 32.5H19.8529L23.7869 23.694H18.6069V22.336H25.3549V23.526ZM27.5749 32.598C27.2855 32.598 27.0429 32.5 26.8469 32.304C26.6509 32.108 26.5529 31.8653 26.5529 31.576C26.5529 31.2867 26.6509 31.044 26.8469 30.848C27.0429 30.652 27.2855 30.554 27.5749 30.554C27.8549 30.554 28.0929 30.652 28.2889 30.848C28.4849 31.044 28.5829 31.2867 28.5829 31.576C28.5829 31.8653 28.4849 32.108 28.2889 32.304C28.0929 32.5 27.8549 32.598 27.5749 32.598ZM30.0978 27.264C30.0978 25.6493 30.3685 24.3893 30.9098 23.484C31.4605 22.5693 32.4031 22.112 33.7378 22.112C35.0725 22.112 36.0105 22.5693 36.5518 23.484C37.1025 24.3893 37.3778 25.6493 37.3778 27.264C37.3778 28.8973 37.1025 30.176 36.5518 31.1C36.0105 32.0147 35.0725 32.472 33.7378 32.472C32.4031 32.472 31.4605 32.0147 30.9098 31.1C30.3685 30.176 30.0978 28.8973 30.0978 27.264ZM35.8098 27.264C35.8098 26.508 35.7585 25.8687 35.6558 25.346C35.5625 24.8233 35.3665 24.3987 35.0678 24.072C34.7691 23.736 34.3258 23.568 33.7378 23.568C33.1498 23.568 32.7065 23.736 32.4078 24.072C32.1091 24.3987 31.9085 24.8233 31.8058 25.346C31.7125 25.8687 31.6658 26.508 31.6658 27.264C31.6658 28.048 31.7125 28.706 31.8058 29.238C31.8991 29.77 32.0951 30.1993 32.3938 30.526C32.7018 30.8527 33.1498 31.016 33.7378 31.016C34.3258 31.016 34.7691 30.8527 35.0678 30.526C35.3758 30.1993 35.5765 29.77 35.6698 29.238C35.7631 28.706 35.8098 28.048 35.8098 27.264ZM39.0666 27.264C39.0666 25.6493 39.3372 24.3893 39.8786 23.484C40.4292 22.5693 41.3719 22.112 42.7066 22.112C44.0412 22.112 44.9792 22.5693 45.5206 23.484C46.0712 24.3893 46.3466 25.6493 46.3466 27.264C46.3466 28.8973 46.0712 30.176 45.5206 31.1C44.9792 32.0147 44.0412 32.472 42.7066 32.472C41.3719 32.472 40.4292 32.0147 39.8786 31.1C39.3372 30.176 39.0666 28.8973 39.0666 27.264ZM44.7786 27.264C44.7786 26.508 44.7272 25.8687 44.6246 25.346C44.5312 24.8233 44.3352 24.3987 44.0366 24.072C43.7379 23.736 43.2946 23.568 42.7066 23.568C42.1186 23.568 41.6752 23.736 41.3766 24.072C41.0779 24.3987 40.8772 24.8233 40.7746 25.346C40.6812 25.8687 40.6346 26.508 40.6346 27.264C40.6346 28.048 40.6812 28.706 40.7746 29.238C40.8679 29.77 41.0639 30.1993 41.3626 30.526C41.6706 30.8527 42.1186 31.016 42.7066 31.016C43.2946 31.016 43.7379 30.8527 44.0366 30.526C44.3446 30.1993 44.5452 29.77 44.6386 29.238C44.7319 28.706 44.7786 28.048 44.7786 27.264Z" fill="#1A1A1A"/>
</svg>
