<svg width="41" height="40" viewBox="0 0 41 40" fill="none" xmlns="http://www.w3.org/2000/svg">
<g id="shopping-bag" clip-path="url(#clip0_1_1773)">
<g id="Group">
<g id="Group_2">
<path id="Vector" d="M36.6468 34.6678L34.345 8.72697C34.3036 8.21362 33.873 7.82447 33.3514 7.82447H28.4994C28.4911 3.51066 24.9804 0 20.6666 0C16.3528 0 12.8422 3.51066 12.8339 7.82447H7.9819C7.46854 7.82447 7.03799 8.21362 6.98831 8.72697L4.68651 34.6678C4.68651 34.7009 4.68651 34.7257 4.68651 34.7589C4.68651 37.6485 7.34435 40 10.6066 40H30.7267C33.9889 40 36.6468 37.6485 36.6468 34.7589C36.6468 34.7257 36.6468 34.7009 36.6468 34.6678ZM20.6666 1.98717C23.8875 1.98717 26.5039 4.6036 26.5122 7.82447H14.8211C14.8293 4.6036 17.4458 1.98717 20.6666 1.98717ZM30.7267 38.0046H10.6066C8.45385 38.0046 6.69852 36.5721 6.67368 34.792L8.89268 9.81163H12.8339V13.2975C12.8339 13.8439 13.281 14.291 13.8275 14.291C14.3739 14.291 14.8211 13.8439 14.8211 13.2975V9.81163H26.5122V13.2975C26.5122 13.8439 26.9593 14.291 27.5058 14.291C28.0523 14.291 28.4994 13.8439 28.4994 13.2975V9.81163H32.4406L34.6596 34.8002C34.6348 36.5721 32.8794 38.0046 30.7267 38.0046Z" fill="#00B307"/>
<path id="Vector_2" d="M24.7982 20.6831L18.9361 26.5453L16.5432 24.1524C16.1541 23.7632 15.5248 23.7632 15.1357 24.1524C14.7465 24.5415 14.7465 25.1708 15.1357 25.56L18.2323 28.6566C18.4228 28.8471 18.6794 28.9464 18.9361 28.9464C19.1928 28.9464 19.4412 28.8471 19.6399 28.6566L26.2058 22.0907C26.595 21.7015 26.595 21.0723 26.2058 20.6831C25.8167 20.3022 25.1874 20.3022 24.7982 20.6831Z" fill="#00B307"/>
</g>
</g>
</g>
<defs>
<clipPath id="clip0_1_1773">
<rect width="40" height="40" fill="white" transform="translate(0.666687)"/>
</clipPath>
</defs>
</svg>
